<?xml version="1.0" encoding="UTF-8" standalone="no"?>
<svg width="1040px" height="1040px" viewBox="0 0 1040 1040" version="1.1" xmlns="http://www.w3.org/2000/svg" xmlns:xlink="http://www.w3.org/1999/xlink" xmlns:sketch="http://www.bohemiancoding.com/sketch/ns">
    <title>Slice 1</title>
    <description>Created with Sketch (http://www.bohemiancoding.com/sketch)</description>
    <defs></defs>
    <g id="Page 1" stroke="none" stroke-width="1" fill="none" fill-rule="evenodd">
        <g id="Group" transform="translate(-640.000000, -427.000000)">
            <path d="M0,0 L0,2160 L1760,2160 L1760,0 L0,0 Z M0,0" id="Rectangle 1" fill="#F0E5C9"></path>
            <path d="M639.833334,1307.16701 L800,1307.16702 L800,1147 L560,907 L400,907 L320,988 L160,988 L0,1147 L0,2587 L560,2587 L560,2107 L1120,2587 L1280,2427 L800,1947 L800,1467 L639.833334,1307.16701 Z M639.833334,1307.16701" id="Path 6" fill="#9BA657"></path>
            <path d="M320,988 L320,1147 L480,1307 L480,2507 L560,2587 L800,2587 L800,2427 L880,2507 L960,2507 L960,2427 L1040,2347 L640,1947 L640,1467 L800,1307 L720,1227 L640,1307 L320,988 Z M320,988" id="Path 6" fill="#5E632A"></path>
            <path d="M1200,1227 L1120,1227 L1040,1307 L960,1307 L800,1147 L720,1227 L480,988 L640,827 L960,507 L1280,507 L1440,667 L1440,835.282135 L1440,988 L1280,1147 L1280,1307 L1200,1227 Z M1200,1227" id="Path 1" fill="#A68C69"></path>
            <path d="M720.000002,747 L800.000037,827 L960,827 L1040,747 L1120,827 L1120,988 L1280,827 L1440,988 L1600,988 L1680,907 L1680,747 L1360,427 L1040,427 L720.000002,747 Z M720.000002,747" id="Path 2" fill="#594433"></path>
            <path d="M1120,1227 L1120,1307 L1200,1227 L1120,1147 L960,1147 L1040,1227 L1120,1227 Z M1120,1227" id="Path 3" fill="#594433"></path>
        </g>
    </g>
</svg>